<?xml version="1.0" encoding="utf-8"?>
<!-- Generator: Adobe Illustrator 16.0.3, SVG Export Plug-In . SVG Version: 6.00 Build 0)  -->
<!DOCTYPE svg PUBLIC "-//W3C//DTD SVG 1.1//EN" "http://www.w3.org/Graphics/SVG/1.1/DTD/svg11.dtd">
<svg version="1.1" id="Layer_1" xmlns="http://www.w3.org/2000/svg" xmlns:xlink="http://www.w3.org/1999/xlink" x="0px" y="0px"
	 width="100.411px" height="10.226px" viewBox="0 0 100.411 10.226" enable-background="new 0 0 100.411 10.226"
	 xml:space="preserve">
<g>
	<path d="M1.639,1.919v2.452h4.076v1.625H1.639v4.09H0V0.28h6.542v1.639H1.639z"/>
	<path d="M13.875,5.995h-1.331v4.09h-1.639V0.28h3.264c0,0,3.278,0,3.278,2.857c0,1.583-1.009,2.283-1.891,2.605l2.003,4.342h-1.807
		L13.875,5.995z M12.545,4.371h1.625c0,0,1.639,0,1.639-1.233c0-1.219-1.639-1.219-1.639-1.219h-1.625V4.371z"/>
	<path d="M26.63,8.951h-3.446l-0.42,1.135H21L24.908,0l3.922,10.085h-1.765L26.63,8.951z M23.717,7.536h2.381l-1.19-3.404
		L23.717,7.536z"/>
	<path d="M41.43,4.51V10.1h-1.429l-0.084-0.896c-0.798,0.742-1.625,1.022-2.788,1.022c-2.633,0-4.692-1.835-4.692-5.043
		c0-2.914,2.199-5.042,4.902-5.042c1.359,0,2.578,0.546,3.46,1.443l-1.148,1.148c-0.588-0.588-1.415-0.953-2.312-0.953
		c-1.807,0-3.264,1.261-3.264,3.404c0,2.396,1.457,3.404,3.264,3.404c0.981,0,1.849-0.42,2.452-1.106V5.953h-2.605V4.51H41.43z"/>
	<path d="M49.309,5.995h-1.331v4.09H46.34V0.28h3.264c0,0,3.278,0,3.278,2.857c0,1.583-1.009,2.283-1.891,2.605l2.003,4.342h-1.807
		L49.309,5.995z M47.979,4.371h1.625c0,0,1.639,0,1.639-1.233c0-1.219-1.639-1.219-1.639-1.219h-1.625V4.371z"/>
	<path d="M62.064,8.951h-3.446l-0.42,1.135h-1.765L60.341,0l3.922,10.085h-1.765L62.064,8.951z M59.15,7.536h2.381l-1.19-3.404
		L59.15,7.536z"/>
	<path d="M76.332,10.085h-1.653L69.805,3.11v6.976h-1.639V0.28h1.653l4.889,6.976V0.28h1.625V10.085z"/>
	<path d="M88.246,7.634l1.148,1.163c-0.883,0.882-2.102,1.429-3.46,1.429c-2.704,0-4.917-1.961-4.917-5.043
		c0-2.956,2.045-5.042,4.917-5.042c1.358,0,2.577,0.546,3.46,1.443l-1.148,1.148c-0.589-0.588-1.415-0.953-2.312-0.953
		c-2.018,0-3.25,1.429-3.25,3.404c0,2.101,1.442,3.404,3.25,3.404C86.831,8.586,87.657,8.223,88.246,7.634z"/>
	<path d="M95.508,1.919v2.452h4.076v1.625h-4.076v2.452h4.902v1.639h-6.542V0.28h6.542v1.639H95.508z"/>
</g>
</svg>
