<?xml version="1.0" encoding="utf-8"?>
<!-- Generator: Adobe Illustrator 16.0.3, SVG Export Plug-In . SVG Version: 6.00 Build 0)  -->
<!DOCTYPE svg PUBLIC "-//W3C//DTD SVG 1.1//EN" "http://www.w3.org/Graphics/SVG/1.1/DTD/svg11.dtd">
<svg version="1.1" id="Layer_1" xmlns="http://www.w3.org/2000/svg" xmlns:xlink="http://www.w3.org/1999/xlink" x="0px" y="0px"
	 width="96.878px" height="10.226px" viewBox="0 0 96.878 10.226" enable-background="new 0 0 96.878 10.226" xml:space="preserve">
<g>
	<path d="M10.631,10.085H8.992V4.062l-2.815,6.023H4.636L1.639,3.936v6.149H0V0.266h1.666L5.393,7.9l3.572-7.634h1.666V10.085z"/>
	<path d="M20.162,8.951h-3.446l-0.42,1.135h-1.765L18.439,0l3.922,10.085h-1.765L20.162,8.951z M17.248,7.536h2.382l-1.19-3.404
		L17.248,7.536z"/>
	<path d="M34.43,10.085h-1.653L27.902,3.11v6.976h-1.64V0.28h1.653l4.889,6.976V0.28h1.625V10.085z"/>
	<path d="M39.493,0.28h1.639v9.805h-1.639V0.28z"/>
	<path d="M47.811,1.919v2.452h4.076v1.625h-4.076v4.09h-1.64V0.28h6.542v1.639H47.811z"/>
	<path d="M58.729,1.919v2.452h4.076v1.625h-4.076v2.452h4.902v1.639h-6.541V0.28h6.541v1.639H58.729z"/>
	<path d="M67.772,7.368h1.64c0.027,0.812,0.7,1.218,1.429,1.218c0.756,0,1.429-0.476,1.429-1.247c0-0.826-0.771-1.345-1.429-1.373
		c-0.084,0-0.757,0-1.471-0.322c-1.023-0.476-1.598-1.345-1.598-2.507c0-1.863,1.485-2.998,3.068-2.998
		c1.694,0,2.997,1.148,3.025,2.815h-1.625c-0.028-0.813-0.658-1.177-1.4-1.177c-0.771,0-1.429,0.448-1.429,1.359
		c0,0.813,0.7,1.247,1.429,1.247c0.069,0,0.756,0,1.456,0.322c1.037,0.476,1.598,1.471,1.598,2.633c0,1.877-1.472,2.886-3.054,2.886
		C69.146,10.184,67.801,9.203,67.772,7.368z"/>
	<path d="M83.441,1.779h-2.059v8.307h-1.625V1.779h-2.06V0.28h5.743V1.779z"/>
	<path d="M92.051,10.211c-6.472,0-6.457-10.057,0-10.057C98.48,0.154,98.494,10.211,92.051,10.211z M92.051,1.751
		c-4.23,0-4.244,6.877,0,6.877S96.295,1.751,92.051,1.751z"/>
</g>
</svg>
