<?xml version="1.0" encoding="utf-8"?>
<!-- Generator: Adobe Illustrator 16.0.3, SVG Export Plug-In . SVG Version: 6.00 Build 0)  -->
<!DOCTYPE svg PUBLIC "-//W3C//DTD SVG 1.1//EN" "http://www.w3.org/Graphics/SVG/1.1/DTD/svg11.dtd">
<svg version="1.1" id="Layer_1" xmlns="http://www.w3.org/2000/svg" xmlns:xlink="http://www.w3.org/1999/xlink" x="0px" y="0px"
	 width="54.211px" height="10.057px" viewBox="0 0 54.211 10.057" enable-background="new 0 0 54.211 10.057" xml:space="preserve">
<g>
	<path d="M5.631,8.796H2.185l-0.42,1.135H0L3.908-0.154L7.83,9.931H6.065L5.631,8.796z M2.717,7.382h2.381l-1.19-3.404L2.717,7.382z
		"/>
	<path d="M18.4,7.116c0,2.689-2.746,2.815-3.404,2.815h-3.264V0.14h3.264c0,0,3.264-0.084,3.264,2.746
		c0,1.289-0.798,1.947-1.639,2.157C18.47,5.421,18.4,7.116,18.4,7.116z M13.357,4.216h1.639c0,0,1.625,0,1.625-1.219
		c0-1.317-1.625-1.233-1.625-1.233h-1.639V4.216z M16.761,7.074c0-1.317-1.765-1.219-1.765-1.219h-1.639v2.451h1.639
		C15.683,8.306,16.761,8.138,16.761,7.074z"/>
	<path d="M27.429,10.057c-6.472,0-6.458-10.057,0-10.057C33.858,0,33.872,10.057,27.429,10.057z M27.429,1.597
		c-4.23,0-4.244,6.877,0,6.877S31.673,1.597,27.429,1.597z"/>
	<path d="M36.932,6.793V0.126h1.639v6.667c0.084,1.135,0.995,1.639,2.031,1.639c1.023,0,2.045-0.546,2.045-1.639V0.126h1.639v6.667
		c0,2.087-1.597,3.278-3.684,3.278C38.585,10.071,36.932,8.811,36.932,6.793z"/>
	<path d="M54.211,1.625h-2.059v8.307h-1.625V1.625h-2.059V0.126h5.743V1.625z"/>
</g>
</svg>
