<svg width="626" height="14" xmlns="http://www.w3.org/2000/svg">
 <g>
  <title>Layer 1</title>
  <g id="svg_1">
   <path id="svg_2" d="m9.336693,9.826874c0,3.635389 -3.762008,3.804934 -4.664303,3.804934l-4.472377,0l0,-13.236465l4.472377,0c0,0 4.472439,-0.112388 4.472439,3.71228c0,1.74279 -1.094096,2.632926 -2.245214,2.916782c2.53301,0.51158 2.437078,2.80247 2.437078,2.80247zm-6.910493,-3.920329l2.24619,0c0,0 2.227224,0 2.227224,-1.646165c0,-1.780272 -2.227224,-1.665899 -2.227224,-1.665899l-2.24619,0l0,3.312064zm4.664302,3.863112c0,-1.779249 -2.41805,-1.646165 -2.41805,-1.646165l-2.246191,0l0,3.313027l2.246191,0c0.940228,0.00006 2.41805,-0.226701 2.41805,-1.666862z"/>
   <path id="svg_3" d="m33.70723,12.099955l-4.721203,0l-0.57559,1.532815l-2.418051,0l5.354731,-13.63277l5.374731,13.63277l-2.41811,0l-0.596508,-1.532815zm-3.991806,-1.913296l3.262405,0l-1.631689,-4.60043l-1.630716,4.60043z"/>
   <path id="svg_4" d="m58.020802,8.103758l-1.823551,0l0,5.527989l-2.246193,0l0,-13.254214l4.472443,0c0,0 4.492378,0 4.492378,3.863113c0,2.140057 -1.382866,3.087349 -2.591923,3.522039l2.744816,5.869062l-2.477024,0l-2.570946,-5.527989zm-1.823551,-2.197213l2.22625,0c0,0 2.246185,0 2.246185,-1.664937c0,-1.647128 -2.246185,-1.647128 -2.246185,-1.647128l-2.22625,0l0,3.312064z"/>
   <path id="svg_5" d="m90.338966,9.826874c0,3.635389 -3.762001,3.804934 -4.664307,3.804934l-4.472366,0l0,-13.236465l4.472366,0c0,0 4.472443,-0.112388 4.472443,3.71228c0,1.74279 -1.095131,2.632926 -2.246185,2.916782c2.533981,0.51158 2.438049,2.80247 2.438049,2.80247zm-6.910492,-3.920329l2.246185,0c0,0 2.227234,0 2.227234,-1.646165c0,-1.780272 -2.227234,-1.665899 -2.227234,-1.665899l-2.246185,0l0,3.312064zm4.664246,3.863112c0,-1.779249 -2.41806,-1.646165 -2.41806,-1.646165l-2.246246,0l0,3.313027l2.246246,0c0.940231,0.00006 2.41806,-0.226701 2.41806,-1.666862z"/>
   <path id="svg_6" d="m114.900337,12.572127c0,0.642678 -0.537605,1.17303 -1.229004,1.17303c-0.652489,0 -1.190086,-0.530352 -1.190086,-1.17303c0,-0.663376 0.538567,-1.211475 1.190086,-1.211475c0.691399,0 1.229004,0.549063 1.229004,1.211475z"/>
   <path id="svg_7" d="m141.728867,8.103758l-1.823563,0l0,5.527989l-2.246185,0l0,-13.254214l4.472427,0c0,0 4.492386,0 4.492386,3.863113c0,2.140057 -1.381882,3.087349 -2.590942,3.522039l2.744812,5.869062l-2.475983,0l-2.572952,-5.527989zm-1.823563,-2.197213l2.226242,0c0,0 2.246201,0 2.246201,-1.664937c0,-1.647128 -2.246201,-1.647128 -2.246201,-1.647128l-2.226242,0l0,3.312064z"/>
   <path id="svg_8" d="m167.155563,2.593518l0,3.312065l5.585556,0l0,2.197213l-5.585556,0l0,3.313087l6.717651,0l0,2.214961l-8.963837,0l0,-13.254273l8.963837,0l0,2.215985l-6.717651,0l0,0.000962z"/>
   <path id="svg_9" d="m199.146973,11.417808l0,2.214962l-7.21727,0l0,-13.254213l2.246262,0l0,11.039251l4.971008,0z"/>
   <path id="svg_10" d="m218.71933,2.593518l0,3.312065l5.586548,0l0,2.197213l-5.586548,0l0,3.313087l6.718628,0l0,2.214961l-8.963837,0l0,-13.254273l8.963837,0l0,2.215985l-6.718628,0l0,0.000962z"/>
   <path id="svg_11" d="m249.693604,12.099955l-4.722244,0l-0.575516,1.532815l-2.419098,0l5.355759,-13.63277l5.37468,13.63277l-2.419037,0l-0.594543,-1.532815zm-3.992844,-1.913296l3.263382,0l-1.631699,-4.60043l-1.631683,4.60043z"/>
   <path id="svg_12" d="m269.476807,9.959898l2.246185,0c0.038971,1.097102 0.959229,1.645203 1.956451,1.645203c1.03717,0 1.957428,-0.641716 1.957428,-1.683648c0,-1.117799 -1.055145,-1.817695 -1.957428,-1.855177c-0.113953,0 -1.036163,0 -2.015381,-0.437638c-1.400909,-0.640753 -2.188232,-1.815709 -2.188232,-3.387992c0,-2.518553 2.034332,-4.051368 4.203613,-4.051368c2.324127,0 4.108704,1.551526 4.146698,3.804933l-2.226257,0c-0.038971,-1.099088 -0.902283,-1.589971 -1.920441,-1.589971c-1.055145,0 -1.956451,0.606219 -1.956451,1.836406c0,1.098125 0.959229,1.685633 1.956451,1.685633c0.096893,0 1.03717,0 1.997406,0.435653c1.420868,0.641716 2.188263,1.987298 2.188263,3.558559c0,2.537264 -2.015411,3.901558 -4.184631,3.901558c-2.323242,-0.057157 -4.165741,-1.381983 -4.203674,-3.86215z"/>
   <path id="svg_13" d="m298.358704,2.593518l0,3.312065l5.585541,0l0,2.197213l-5.585541,0l0,3.313087l6.718597,0l0,2.214961l-8.963837,0l0,-13.254273l8.963837,0l0,2.215985l-6.718597,0l0,0.000962z"/>
   <path id="svg_14" d="m356.314362,0.377533l-5.047974,6.986921l0,6.267292l-2.245178,0l0,-6.267292l-5.04895,-6.986921l2.744812,0l3.435242,4.733514l3.41626,-4.733514l2.745789,0z"/>
   <path id="svg_15" d="m373.180908,5.111048c0,-2.706808 2.244171,-4.92177 4.990997,-4.92177c2.744843,0 4.990021,2.214962 4.990021,4.92177c0,2.708794 -2.245178,4.923756 -4.990021,4.923756c-2.746826,0.00006 -4.990997,-2.214902 -4.990997,-4.923756zm9.367523,8.521722l-8.868927,0l0,-2.19625l8.868927,0l0,2.19625zm-7.142334,-8.521722c0,1.516089 1.228027,2.728528 2.765808,2.728528c1.535767,0 2.763763,-1.211476 2.763763,-2.728528c0,-1.513081 -1.227997,-2.725579 -2.763763,-2.725579c-1.536804,0.00006 -2.765808,1.212498 -2.765808,2.725579z"/>
   <path id="svg_16" d="m401.581177,9.391162l0,-9.013569l2.246216,0l0,9.013569c0.113892,1.5348 1.361908,2.213939 2.781738,2.213939c1.401917,0 2.803802,-0.737318 2.803802,-2.213939l0,-9.013569l2.244171,0l0,9.013569c0,2.82118 -2.187195,4.431849 -5.047974,4.431849c-2.762756,0 -5.027954,-1.705307 -5.027954,-4.431849z"/>
   <path id="svg_17" d="m434.473969,8.103758l-1.824524,0l0,5.527989l-2.245239,0l0,-13.254214l4.474457,0c0,0 4.489319,0 4.489319,3.863113c0,2.140057 -1.380829,3.087349 -2.588867,3.522039l2.742828,5.869062l-2.476044,0l-2.57193,-5.527989zm-1.824585,-2.197213l2.22818,0c0,0 2.244171,0 2.244171,-1.664937c0,-1.647128 -2.244171,-1.647128 -2.244171,-1.647128l-2.22818,0l0,3.312064z"/>
   <path id="svg_18" d="m491.201569,13.63277l-2.265167,0l-6.679718,-9.428584l0,9.428584l-2.247223,0l0,-13.254213l2.266266,0l6.699615,9.429547l0,-9.429547l2.226227,0l0,13.254213z"/>
   <path id="svg_19" d="m516.186584,12.099955l-4.722168,0l-0.574615,1.532815l-2.421051,0l5.35675,-13.63277l5.374634,13.63277l-2.419067,0l-0.594482,-1.532815zm-3.992798,-1.913296l3.263428,0l-1.630615,-4.60043l-1.632813,4.60043z"/>
   <path id="svg_20" d="m543.184082,2.40424l-2.817688,0l0,11.22853l-2.226318,0l0,-11.22853l-2.822754,0l0,-2.026707l7.86676,0l0,2.026707z"/>
   <path id="svg_21" d="m560.781982,9.391162l0,-9.013569l2.247192,0l0,9.013569c0.113892,1.5348 1.362915,2.213939 2.782776,2.213939c1.401855,0 2.801758,-0.737318 2.801758,-2.213939l0,-9.013569l2.247192,0l0,9.013569c0,2.82118 -2.188293,4.431849 -5.04895,4.431849c-2.762756,0 -5.029968,-1.705307 -5.029968,-4.431849z"/>
   <path id="svg_22" d="m593.674683,8.103758l-1.821533,0l0,5.527989l-2.245117,0l0,-13.254214l4.473328,0c0,0 4.490479,0 4.490479,3.863113c0,2.140057 -1.382935,3.087349 -2.591003,3.522039l2.743774,5.869062l-2.475891,0l-2.574036,-5.527989zm-1.822632,-2.197213l2.227234,0c0,0 2.245178,0 2.245178,-1.664937c0,-1.647128 -2.245178,-1.647128 -2.245178,-1.647128l-2.227234,0l0,3.312064z"/>
   <path id="svg_23" d="m619.102356,2.593518l0,3.312065l5.586487,0l0,2.197213l-5.586487,0l0,3.313087l6.719666,0l0,2.214961l-8.964783,0l0,-13.254273l8.964783,0l0,2.215985l-6.719666,0l0,0.000962z"/>
  </g>
 </g>
</svg>