<svg width="840" height="25" xmlns="http://www.w3.org/2000/svg">
 <!-- Created with SVG-edit - http://svg-edit.googlecode.com/ -->

 <g>
  <title>Layer 1</title>
  <g id="svg_23">
   <g transform="matrix(1.59456 0 0 1.59456 -5324.96 -4339.35)" id="svg_5">
    <path id="svg_6" d="m3345.583984,2730.765625l-1.900146,0l0,5.84082l-2.339844,0l0,-14.00293l4.660889,0c0,0 4.681152,0 4.681152,4.081055c0,2.26001 -1.440186,3.260986 -2.700195,3.720947l2.860107,6.200928l-2.581055,0l-2.680908,-5.84082zm-1.900146,-2.321045l2.321045,0c0,0 2.340088,0 2.340088,-1.76001c0,-1.73999 -2.340088,-1.73999 -2.340088,-1.73999l-2.321045,0l0,3.5z" fill="#FFFFFF"/>
    <path id="svg_7" d="m3372.202881,2724.94458l0,3.5l7.000977,0l0,2.321045l-7.000977,0l0,3.5l7.000977,0l0,2.34082l-9.342041,0l0,-14.00293l9.342041,0l0,2.341064l-7.000977,0z" fill="#FFFFFF"/>
    <path id="svg_8" d="m3405.943848,2734.265625l0,2.34082l-7.520996,0l0,-14.00293l2.340088,0l0,11.662109l5.180908,0z" fill="#FFFFFF"/>
    <path id="svg_9" d="m3427.50293,2724.94458l0,3.5l7.000977,0l0,2.321045l-7.000977,0l0,3.5l7.000977,0l0,2.34082l-9.342041,0l0,-14.00293l9.342041,0l0,2.341064l-7.000977,0z" fill="#FFFFFF"/>
    <path id="svg_10" d="m3464.904785,2736.606445l-2.520752,0l-0.460205,-1.159912l-5.220947,0l-0.459961,1.159912l-2.520996,0l5.581055,-14.00293l5.601807,14.00293zm-3.920898,-3.500977l-1.681152,-4.199951l-1.659912,4.199951l3.341064,0z" fill="#FFFFFF"/>
    <path id="svg_11" d="m3484.121826,2732.525391l2.340088,0c0.040039,1.160156 1,1.740234 2.041016,1.740234c1.080078,0 2.041016,-0.640137 2.041016,-1.740234c0,-1.179932 -1.100098,-1.719971 -2.041016,-1.759766c-0.120117,0 -1.080078,0 -2.101074,-0.461182c-1.459961,-0.679932 -2.280029,-1.959961 -2.280029,-3.619873c0,-2.47998 2.121094,-4.081055 4.381104,-4.081055c2.419922,0 4.321045,1.699951 4.36084,4.081055l-2.319824,0c-0.040039,-1.160156 -0.97998,-1.73999 -2.041016,-1.73999c-1.100098,0 -2.041016,0.619873 -2.041016,1.73999c0,1.159912 1,1.76001 2.041016,1.76001c0.100098,0 1.080078,0 2.081055,0.460938c1.47998,0.679932 2.279785,1.959961 2.279785,3.619873c0,2.501221 -2.099854,4.081055 -4.36084,4.081055c-2.419922,-0.060059 -4.341064,-1.640869 -4.381104,-4.081055z" fill="#FFFFFF"/>
    <path id="svg_12" d="m3514.421875,2724.94458l0,3.5l5.821045,0l0,2.321045l-5.821045,0l0,3.5l7.000977,0l0,2.34082l-9.341797,0l0,-14.00293l9.341797,0l0,2.341064l-7.000977,0z" fill="#FFFFFF"/>
    <path id="svg_13" d="m3578.703857,2722.603516l-5.260986,7.38208l0,6.62085l-2.339844,0l0,-6.62085l-5.26123,-7.38208l2.861084,0l3.581055,5.000977l3.561035,-5.000977l2.858887,0z" fill="#FFFFFF"/>
    <path id="svg_14" d="m3597.920898,2727.804443c0,-2.859863 2.339844,-5.200928 5.200928,-5.200928c2.860107,0 5.200928,2.341064 5.200928,5.200928s-2.34082,5.200928 -5.200928,5.200928c-2.86084,0.000244 -5.200928,-2.34082 -5.200928,-5.200928zm9.761963,8.802002l-9.241943,0l0,-2.319824l9.241943,0l0,2.319824zm-7.441895,-8.802002c0,1.601074 1.280029,2.881104 2.880859,2.881104c1.600098,0 2.880127,-1.280029 2.880127,-2.881104s-1.280029,-2.880859 -2.880127,-2.880859c-1.599854,0 -2.880859,1.280029 -2.880859,2.880859z" fill="#FFFFFF"/>
    <path id="svg_15" d="m3627.560791,2731.925537l0,-9.322021l2.340088,0l0,9.322021c0.120117,1.620117 1.420166,2.340088 2.901123,2.340088c1.459961,0 2.919922,-0.780029 2.919922,-2.340088l0,-9.322021l2.341064,0l0,9.322021c0,2.97998 -2.460938,4.660889 -5.260986,4.681152c-2.881104,-0.120117 -5.241211,-1.80127 -5.241211,-4.681152z" fill="#FFFFFF"/>
    <path id="svg_16" d="m3661.500977,2730.765625l-1.900146,0l0,5.84082l-2.339844,0l0,-14.00293l4.659912,0c0,0 4.682129,0 4.682129,4.081055c0,2.26001 -1.440186,3.260986 -2.701172,3.720947l2.861084,6.200928l-2.581055,0l-2.680908,-5.84082zm-1.900146,-2.321045l2.320068,0c0,0 2.341064,0 2.341064,-1.76001c0,-1.73999 -2.341064,-1.73999 -2.341064,-1.73999l-2.320068,0l0,3.5z" fill="#FFFFFF"/>
    <path id="svg_17" d="m3722.64209,2736.606445l-2.360352,0l-6.959717,-9.961914l0,9.961914l-2.340088,0l0,-14.00293l2.359863,0l6.980225,9.961914l0,-9.961914l2.320068,0l0,14.00293l0,0z" fill="#FFFFFF"/>
    <path id="svg_18" d="m3753.062012,2736.606445l-2.52002,0l-0.460938,-1.159912l-5.221191,0l-0.460938,1.159912l-2.52002,0l5.579834,-14.00293l5.603271,14.00293zm-3.919922,-3.500977l-1.682129,-4.199951l-1.660156,4.199951l3.342285,0z" fill="#FFFFFF"/>
    <path id="svg_19" d="m3778.000977,2724.94458l-3.500244,0l0,11.661865l-2.339844,0l0,-11.661865l-3.501953,0l0,-2.341064l9.342041,0l0,2.341064z" fill="#FFFFFF"/>
    <path id="svg_20" d="m3797.199951,2731.925537l0,-9.322021l2.340088,0l0,9.322021c0.121094,1.620117 1.419922,2.340088 2.899902,2.340088c1.461182,0 2.921875,-0.780029 2.921875,-2.340088l0,-9.322021l2.340088,0l0,9.322021c0,2.97998 -2.460938,4.660889 -5.261963,4.681152c-2.879883,-0.120117 -5.23999,-1.80127 -5.23999,-4.681152z" fill="#FFFFFF"/>
    <path id="svg_21" d="m3831.139893,2730.765625l-1.900146,0l0,5.84082l-2.339844,0l0,-14.00293l4.660156,0c0,0 4.681885,0 4.681885,4.081055c0,2.26001 -1.441162,3.260986 -2.700928,3.720947l2.86084,6.200928l-2.580078,0l-2.681885,-5.84082zm-1.901123,-2.321045l2.320068,0c0,0 2.342041,0 2.342041,-1.76001c0,-1.73999 -2.342041,-1.73999 -2.342041,-1.73999l-2.320068,0l0,3.5z" fill="#FFFFFF"/>
    <path id="svg_22" d="m3857.758789,2724.94458l0,3.5l7.001953,0l0,2.321045l-7.001953,0l0,3.5l7.001953,0l0,2.34082l-9.341797,0l0,-14.00293l9.341797,0l0,2.341064l-7.001953,0z" fill="#FFFFFF"/>
   </g>
  </g>
 </g>
</svg>